inDegrees=no
num_controls=7
num_derivatives=13
num_iterations=135
num_multipliers=7
num_parameters=0
num_slacks=7
num_states=26
objective=0.543638
objective_accelerations=0.060771
objective_balance=0.003273
objective_effort=0.047282
objective_height=0.422546
objective_ligament=0.009767
solver_duration=1459.096009
status=Solve_Succeeded
success=true
DataType=double
version=3
OpenSimVersion=4.5
endheader
time	/jointset/ground_pelvis/pelvis_tilt/value	/jointset/ground_pelvis/pelvis_tx/value	/jointset/ground_pelvis/pelvis_ty/value	/jointset/hip_r/hip_flexion_r/value	/jointset/hip_r/hip_adduction_r/value	/jointset/hip_r/hip_rotation_r/value	/jointset/back/lumbar_extension/value	/jointset/patellofemoral_r/patellar_flexion_r/value	/jointset/knee_r/knee_flexion_r/value	/jointset/knee_r/knee_adduction_r/value	/jointset/knee_r/knee_rotation_r/value	/jointset/ankle_r/ankle_angle_r/value	/jointset/subtalar_r/subtalar_angle_r/value	/jointset/ground_pelvis/pelvis_tilt/speed	/jointset/ground_pelvis/pelvis_tx/speed	/jointset/ground_pelvis/pelvis_ty/speed	/jointset/hip_r/hip_flexion_r/speed	/jointset/hip_r/hip_adduction_r/speed	/jointset/hip_r/hip_rotation_r/speed	/jointset/back/lumbar_extension/speed	/jointset/patellofemoral_r/patellar_flexion_r/speed	/jointset/knee_r/knee_flexion_r/speed	/jointset/knee_r/knee_adduction_r/speed	/jointset/knee_r/knee_rotation_r/speed	/jointset/ankle_r/ankle_angle_r/speed	/jointset/subtalar_r/subtalar_angle_r/speed	/forceset/tau_hip_flexion_r	/forceset/tau_hip_adduction_r	/forceset/tau_hip_rotation_r	/forceset/tau_knee_flexion_r	/forceset/tau_ankle_angle_r	/forceset/tau_subtalar_angle_r	/forceset/tau_lumbar_extension	lambda_cid13_p0	lambda_cid14_p0	lambda_cid14_p1	lambda_cid14_p2	lambda_cid14_p3	lambda_cid14_p4	lambda_cid14_p5	/jointset/ground_pelvis/pelvis_tilt/accel	/jointset/ground_pelvis/pelvis_tx/accel	/jointset/ground_pelvis/pelvis_ty/accel	/jointset/hip_r/hip_flexion_r/accel	/jointset/hip_r/hip_adduction_r/accel	/jointset/hip_r/hip_rotation_r/accel	/jointset/back/lumbar_extension/accel	/jointset/patellofemoral_r/patellar_flexion_r/accel	/jointset/knee_r/knee_flexion_r/accel	/jointset/knee_r/knee_adduction_r/accel	/jointset/knee_r/knee_rotation_r/accel	/jointset/ankle_r/ankle_angle_r/accel	/jointset/subtalar_r/subtalar_angle_r/accel	gamma_cid13_p0	gamma_cid14_p0	gamma_cid14_p1	gamma_cid14_p2	gamma_cid14_p3	gamma_cid14_p4	gamma_cid14_p5
1.5	-0.2009878416900045	0.01734169017971452	0.818421472271303	0.9432955166928608	-0.2439529260783982	-0.08333724725519201	-0.3062972634410046	0.8397955560276893	0.8397955560276904	0.06075562026841379	0.1744459783273341	0.2687350601175545	0.03859552773140501	0.4653525318929073	0.1954598385451201	0.5491099804838002	-2.192054077391266	0.03517319202468912	-0.4815478464120975	0.696917670793457	-2.257512669692438	-2.257512669692459	0.1676118068141507	0.001547201224632359	-0.6275074470350381	-0.1144875793201282	-0.1271350619391329	-0.02165029958623756	0.01533341843318111	-0.3530579120205595	0.08909622951226889	-0.009880061884563873	0.164810333435035	-22.85853311560664	-12.10569902242509	-2.907966739364509	-3.07719325992862	-3.120478363508241	-647.1015526331879	58.60195736154296	0.3800049968755653	0.5895042571701514	-0.6746746023565549	-1.163859962043796	0.1928113414811842	-0.2391060957420849	1.682667394318892	-1.380573162437631	-1.380573162437628	0.6313603123854785	-0.04813154510536524	-0.6803876039081405	0.1353045952419767	1.777711268893022e-07	1.048879388927236e-07	-1.800425844969269e-06	7.89348953995741e-07	1.384974614293593e-07	2.397598622027912e-07	-1.107735571357385e-06
1.51	-0.1963157648182205	0.0193255286402863	0.8238776603195771	0.9213191713781782	-0.24359243511631	-0.0881651979169739	-0.2992451724095204	0.8171542949945159	0.8171542949945203	0.06246448135111243	0.1744607126621205	0.2624266012690661	0.03745634122582621	0.4689889083819569	0.2012792557964654	0.5420079891062091	-2.202917770215024	0.03691943264386194	-0.4840205086811293	0.7134036905138108	-2.270424686160481	-2.270424686160472	0.1741628186027917	0.001396615435094709	-0.6340866211925099	-0.1133374154416916	-0.1197513044778673	-0.02344890922722146	0.01477412163995675	-0.3485793800954288	0.09187221874708851	-0.01078314871719584	0.1581525623684573	-24.30025150161366	-10.96146728140023	-2.971971604113678	-3.213034769943942	-3.479322643079192	-641.7469279213801	58.4640014435852	0.3443759271896499	0.5738982929585972	-0.7458542510382471	-1.003026028807551	0.1646728708014399	-0.2478112902634772	1.617042512459585	-1.199326577544132	-1.199326577539629	0.6670826470833577	0.001165795964599821	-0.631983673573871	0.1065230991808318	1.86851436462138e-07	1.133063021922543e-07	-1.861765888292878e-06	8.456646951136797e-07	1.378383854958018e-07	2.569600346969113e-07	-1.153259894538997e-06
1.52	-0.1916095397910913	0.02136670884013988	0.8292592498849596	0.8992431087180047	-0.2432146532582946	-0.09301716820100406	-0.2920311265305197	0.7943933516589508	0.7943933516589589	0.0642388747586941	0.1744738787173805	0.2560552904086217	0.0363289865220391	0.4721821629618065	0.2069281864014798	0.5341902839054964	-2.21199754648941	0.03863137120967766	-0.4863517708613506	0.7293086402968039	-2.281449130170785	-2.281449130170746	0.1807182717906296	0.001233545319259747	-0.6400778494262684	-0.1121212189618019	-0.1123675470166075	-0.0252475188682053	0.01421482484674213	-0.3441008481702992	0.09464820798190841	-0.011686235549828	0.1514947913018742	-25.72548261146548	-9.822908398587369	-3.033549952650164	-3.35316968172565	-3.842588264144152	-636.4866665091453	58.39523508085126	0.291380615035575	0.5554069279039338	-0.817817366980883	-0.8070766521691507	0.1859509308097646	-0.210826077979967	1.56645340684673	-1.003058670889871	-1.003058670889866	0.6322485922248604	-0.05062841036483983	-0.5627984191654565	0.1485111155325884	1.971118814576673e-07	1.224985856699294e-07	-1.945030353964077e-06	9.031226437000168e-07	1.378762545767558e-07	2.799647013685799e-07	-1.21172758592317e-06
1.53	-0.1868735976414354	0.02346347328978836	0.8345591825213237	0.8770851220343319	-0.2428199985772387	-0.09789182881429881	-0.2846611078554009	0.7715316263552583	0.7715316263552624	0.06607894266589098	0.1744854570206483	0.2496270364337896	0.03521404626033284	0.474926773101655	0.2123903596068052	0.5256848315055768	-2.219292076796212	0.04029295034675473	-0.48855772961115	0.7445868266355726	-2.290568402965615	-2.290568402965611	0.187293406460071	0.001078700311066236	-0.6454669084181858	-0.1108540498963101	-0.1049245943731686	-0.02717612404070462	0.01362242370045966	-0.3398750096581746	0.09763497407489288	-0.01273528421876026	0.1447997926733456	-27.13050713569892	-8.640940281714284	-3.159184455335192	-3.473650647854675	-4.204089440771916	-631.503922383383	58.26249383349239	0.2540895359912792	0.5364987428842733	-0.8835560049754867	-0.6444672077143488	0.1552379917615161	-0.2217898568603261	1.492261033684029	-0.8172754015349678	-0.8172754015403335	0.6695853392132239	0.001745467815316953	-0.5110062111277989	0.1175221416100674	2.086262203398085e-07	1.325131593368831e-07	-2.051589518379591e-06	9.61794187721527e-07	1.386546277356283e-07	3.091366431038938e-07	-1.283947606022562e-06
